<svg xmlns="http://www.w3.org/2000/svg" width="33" height="33" viewBox="0 0 33 33"><defs><style>.a{fill:#235763;stroke:#235763;}</style></defs><g transform="translate(0.5 0.5)"><path class="a" d="M19.667,28a.661.661,0,0,1-.4-.133C18.929,27.616,11,21.64,11,16.841a4.842,4.842,0,0,1,8.667-2.969,4.842,4.842,0,0,1,8.667,2.969c0,4.8-7.929,10.775-8.268,11.027a.668.668,0,0,1-.4.132ZM15.841,13.333a3.513,3.513,0,0,0-3.508,3.508c0,3.239,4.964,7.8,7.333,9.652C22.035,24.637,27,20.077,27,16.841a3.507,3.507,0,0,0-6.721-1.405.7.7,0,0,1-1.224,0A3.5,3.5,0,0,0,15.841,13.333Z" transform="translate(3.667 4)"/><path class="a" d="M12.667,27H3.333A3.336,3.336,0,0,1,0,23.667V6.333A3.336,3.336,0,0,1,3.333,3H6A.667.667,0,0,1,6,4.333H3.333a2,2,0,0,0-2,2V23.667a2,2,0,0,0,2,2h9.333a.667.667,0,0,1,0,1.333Z" transform="translate(0 1)"/><path class="a" d="M18,13.667A.667.667,0,0,1,17.333,13V6.333a2,2,0,0,0-2-2H12.667a.667.667,0,0,1,0-1.333h2.667a3.336,3.336,0,0,1,3.333,3.333V13A.667.667,0,0,1,18,13.667Z" transform="translate(4 1)"/><path class="a" d="M14,8H6A2,2,0,0,1,4,6V3.333a.667.667,0,0,1,.667-.667H6.733a3.334,3.334,0,0,1,6.533,0h2.067A.667.667,0,0,1,16,3.333V6A2,2,0,0,1,14,8ZM5.333,4V6A.669.669,0,0,0,6,6.667h8A.669.669,0,0,0,14.667,6V4h-2A.667.667,0,0,1,12,3.333a2,2,0,0,0-4,0A.667.667,0,0,1,7.333,4Z" transform="translate(1.333)"/><path class="a" d="M17,9.333H3.667A.667.667,0,1,1,3.667,8H17a.667.667,0,1,1,0,1.333Z" transform="translate(1 2.667)"/><path class="a" d="M13,12.333H3.667a.667.667,0,0,1,0-1.333H13a.667.667,0,0,1,0,1.333Z" transform="translate(1 3.667)"/><path class="a" d="M10.333,15.333H3.667a.667.667,0,0,1,0-1.333h6.667a.667.667,0,1,1,0,1.333Z" transform="translate(1 4.667)"/></g></svg>