<svg xmlns="http://www.w3.org/2000/svg" width="31.644" height="32" viewBox="0 0 31.644 32"><defs><style>.a,.b{fill:#235763;}.a{fill-rule:evenodd;}</style></defs><g transform="translate(1.147 9.332)"><path class="a" d="M17.917,996.423c.857-1.028,7.991-9.914,9.848-12.2a.428.428,0,0,1,.645-.023c1.275,1.349,5.943,6.269,10.008,10.287,1.174,1.161,1.995,1.926,2.551,2.422a1.225,1.225,0,0,0,1.8-.178l.173-.23a1.2,1.2,0,0,0-.162-1.611l-3.85-3.422a.434.434,0,0,1-.146-.324v-8.472a.434.434,0,0,0-.434-.434H36.269a.434.434,0,0,0-.434.434v4.407a.434.434,0,0,1-.741.307l-5.951-5.951c-.8-.8-1.338-.8-2.409.268-.208.208-5.086,5.889-5.086,5.889s-4.091,4.891-6.053,7.264S16.578,998.03,17.917,996.423Z" transform="translate(-14.941 -980.862)"/><g transform="translate(11.258 9.406)"><ellipse class="b" cx="2.677" cy="2.677" rx="2.677" ry="2.677"/></g></g><path class="b" d="M37.71,964.386a1.338,1.338,0,0,1-1-2.228c.238-.27,5.814-6.712.9-11.631a5.308,5.308,0,0,0-4.147-1.843c-3.074.184-5.61,3.372-5.636,3.4l-1.077,1.372L25.7,952.067a9.223,9.223,0,0,0-2.969-2.378c-2.278-1.108-4.613-.783-6.941.963a5.616,5.616,0,0,0-2.408,3.878c-.475,3.7,2.62,7.644,2.652,7.683a1.338,1.338,0,0,1-2.091,1.67c-.157-.2-3.83-4.851-3.217-9.682a8.265,8.265,0,0,1,3.459-5.692c4.025-3.019,7.561-2.307,9.818-1.179a11.68,11.68,0,0,1,2.765,1.961,10.839,10.839,0,0,1,6.516-3.28,7.932,7.932,0,0,1,6.217,2.622c5.366,5.366,1.831,12.356-.788,15.3A1.335,1.335,0,0,1,37.71,964.386Z" transform="translate(-10.654 -945.998)"/><g transform="translate(6.933 23.972)"><path class="b" d="M45.514,1043.584l-8.363-5.576a1.338,1.338,0,0,1,1.485-2.227l6.787,4.525,5.976-4.482A1.338,1.338,0,1,1,53,1037.966Z" transform="translate(-36.555 -1035.556)"/></g></svg>