<svg xmlns="http://www.w3.org/2000/svg" width="32.384" height="32.384" viewBox="0 0 32.384 32.384"><defs><style>.a{fill:#235763;}</style></defs><circle class="a" cx="1" cy="1" r="1" transform="translate(23.365 12.307)"/><path class="a" d="M27.324,2.53H25.679V1.265a1.265,1.265,0,1,0-2.53,0V2.53H17.394V1.265a1.265,1.265,0,0,0-2.53,0V2.53H9.171V1.265a1.265,1.265,0,1,0-2.53,0V2.53H5.06A5.066,5.066,0,0,0,0,7.59V27.324a5.066,5.066,0,0,0,5.06,5.06h9.677a1.265,1.265,0,1,0,0-2.53H5.06a2.533,2.533,0,0,1-2.53-2.53V7.59A2.533,2.533,0,0,1,5.06,5.06H6.641V6.325a1.265,1.265,0,1,0,2.53,0V5.06h5.692V6.325a1.265,1.265,0,1,0,2.53,0V5.06h5.756V6.325a1.265,1.265,0,1,0,2.53,0V5.06h1.644a2.533,2.533,0,0,1,2.53,2.53V14.8a1.265,1.265,0,0,0,2.53,0V7.59A5.066,5.066,0,0,0,27.324,2.53Z"/><path class="a" d="M277.653,270a7.653,7.653,0,1,0,7.653,7.653A7.662,7.662,0,0,0,277.653,270Zm0,12.776a5.123,5.123,0,1,1,5.123-5.123A5.129,5.129,0,0,1,277.653,282.776Z" transform="translate(-252.923 -252.923)"/><path class="a" d="M374.1,332.593h-.569v-1.328a1.265,1.265,0,1,0-2.53,0v2.593a1.265,1.265,0,0,0,1.265,1.265H374.1a1.265,1.265,0,0,0,0-2.53Z" transform="translate(-347.535 -309.128)"/><ellipse class="a" cx="1.5" cy="1" rx="1.5" ry="1" transform="translate(17.365 12.307)"/><ellipse class="a" cx="1" cy="1.5" rx="1" ry="1.5" transform="translate(12.365 17.307)"/><ellipse class="a" cx="1.5" cy="1" rx="1.5" ry="1" transform="translate(6.365 12.307)"/><circle class="a" cx="1.5" cy="1.5" r="1.5" transform="translate(6.365 17.307)"/><ellipse class="a" cx="1.5" cy="1" rx="1.5" ry="1" transform="translate(6.365 23.307)"/><circle class="a" cx="1" cy="1" r="1" transform="translate(12.365 23.307)"/><circle class="a" cx="1" cy="1" r="1" transform="translate(12.365 12.307)"/></svg>