<svg xmlns="http://www.w3.org/2000/svg" width="28.018" height="33.384" viewBox="0 0 28.018 33.384"><defs><style>.a{fill:#235763;stroke:#235763;}</style></defs><g transform="translate(0.5 0.5)"><path class="a" d="M94.831,15.6a7.547,7.547,0,0,0,5.515-2.285A7.548,7.548,0,0,0,102.631,7.8a7.548,7.548,0,0,0-2.285-5.515,7.8,7.8,0,0,0-11.03,0A7.547,7.547,0,0,0,87.031,7.8a7.547,7.547,0,0,0,2.285,5.515A7.55,7.55,0,0,0,94.831,15.6ZM90.658,3.627a5.9,5.9,0,0,1,8.346,0A5.639,5.639,0,0,1,100.733,7.8,5.639,5.639,0,0,1,99,11.972a5.9,5.9,0,0,1-8.346,0A5.638,5.638,0,0,1,88.929,7.8,5.638,5.638,0,0,1,90.658,3.627Zm0,0" transform="translate(-81.527)"/><path class="a" d="M26.952,256.575a19.266,19.266,0,0,0-.262-2.046,16.122,16.122,0,0,0-.5-2.057,10.163,10.163,0,0,0-.846-1.919,7.233,7.233,0,0,0-1.275-1.662,5.623,5.623,0,0,0-1.832-1.151,6.331,6.331,0,0,0-2.339-.423,2.374,2.374,0,0,0-1.268.538c-.38.248-.824.534-1.321.851a7.566,7.566,0,0,1-1.709.753,6.635,6.635,0,0,1-4.18,0,7.544,7.544,0,0,1-1.707-.753c-.491-.314-.936-.6-1.322-.852a2.371,2.371,0,0,0-1.267-.538,6.323,6.323,0,0,0-2.338.424,5.618,5.618,0,0,0-1.832,1.151,7.235,7.235,0,0,0-1.275,1.662,10.182,10.182,0,0,0-.846,1.919,16.16,16.16,0,0,0-.5,2.057,19.134,19.134,0,0,0-.262,2.047c-.043.618-.065,1.262-.065,1.912a5.377,5.377,0,0,0,1.6,4.068,5.749,5.749,0,0,0,4.115,1.5H21.305a5.749,5.749,0,0,0,4.115-1.5,5.375,5.375,0,0,0,1.6-4.068C27.018,257.836,27,257.192,26.952,256.575Zm-2.84,4.606a3.87,3.87,0,0,1-2.807.978H5.712a3.871,3.871,0,0,1-2.807-.978A3.511,3.511,0,0,1,1.9,258.488c0-.607.02-1.206.06-1.781a17.259,17.259,0,0,1,.237-1.843,14.253,14.253,0,0,1,.442-1.814,8.289,8.289,0,0,1,.688-1.56,5.362,5.362,0,0,1,.937-1.228,3.73,3.73,0,0,1,1.219-.758,4.367,4.367,0,0,1,1.495-.288c.066.035.185.1.377.228.39.254.84.544,1.337.862a9.4,9.4,0,0,0,2.145.958,8.531,8.531,0,0,0,5.347,0,9.413,9.413,0,0,0,2.146-.959c.509-.325.946-.607,1.336-.861.192-.125.31-.192.377-.228a4.37,4.37,0,0,1,1.5.288,3.736,3.736,0,0,1,1.219.758,5.348,5.348,0,0,1,.937,1.228,8.261,8.261,0,0,1,.689,1.56,14.22,14.22,0,0,1,.443,1.814,17.4,17.4,0,0,1,.237,1.843h0c.04.573.061,1.172.061,1.78A3.511,3.511,0,0,1,24.112,261.182Zm0,0" transform="translate(0 -231.674)"/></g></svg>